<svg width="436" height="233" viewBox="0 0 436 233" fill="none" xmlns="http://www.w3.org/2000/svg">
<path d="M218.554 54.8423C260.678 49.9119 274.208 44.7096 303.409 22.2116C346.769 -11.1861 411.456 -11.3373 429.953 52.5468C444.176 101.681 430.462 162.641 398.897 190.591C345.744 237.658 247.371 246.073 186.31 209.762C133.668 178.463 116.751 118.247 149.576 79.0045C160.708 65.6946 178.207 59.5634 218.554 54.8423Z" fill="#FDD849"/>
<path d="M277.231 171.635C282.781 165.782 291.56 174.662 286.01 180.414C278.946 187.882 272.185 194.744 261.387 194.441C251.195 194.24 240.095 192.12 232.627 184.552C219.609 171.231 220.114 144.792 232.728 131.27C240.196 123.197 252.507 121.279 263.103 122.389C274.809 123.701 281.469 130.967 285.304 141.765C288.129 149.838 288.23 158.819 278.038 159.929C264.213 161.342 249.58 160.736 235.554 160.635C235.957 166.387 237.774 171.938 241.507 175.772C246.048 180.515 254.929 182.534 261.387 182.029C268.35 181.524 272.69 176.378 277.231 171.635ZM239.489 143.077C238.581 144.59 237.774 146.407 237.168 148.223C244.03 148.223 250.791 148.324 257.654 148.021C261.589 147.719 265.525 147.416 269.46 147.416C270.873 147.416 272.286 147.416 273.699 147.416C272.79 144.691 271.378 141.26 271.176 140.957C268.048 135.609 264.717 134.802 258.864 134.701C250.892 134.499 243.727 135.912 239.489 143.077ZM251.801 116.738C248.672 121.885 240.599 117.142 243.627 111.995C245.544 108.766 249.782 106.647 252.81 104.629C255.938 102.51 258.663 99.6839 262.094 98.1702C264.516 97.1611 267.341 99.2803 267.947 101.5C268.653 104.124 266.938 106.243 264.617 107.252C267.442 106.041 265.02 107.051 264.314 107.656C263.708 108.161 263.305 108.362 262.8 108.968C261.488 110.078 260.075 111.087 258.663 111.995C257.351 112.803 256.039 113.711 254.727 114.619C254.021 115.023 253.516 115.527 252.911 116.032C252.608 116.234 251.195 117.747 251.801 116.738Z" fill="#2B2B29"/>
<path d="M218.915 120.472C226.887 120.573 226.887 133.086 218.915 132.985C205.292 132.783 191.769 134.196 178.247 134.6C178.146 137.022 178.045 139.343 178.146 141.664C186.925 141.361 195.705 141.058 204.484 141.058C212.557 141.058 212.557 153.471 204.484 153.471C195.806 153.471 187.228 153.773 178.55 154.076C178.55 155.388 178.651 156.801 178.651 158.113C178.953 167.397 178.247 177.488 179.559 186.671C180.568 194.542 168.559 197.872 167.55 190.001C166.238 180.515 166.541 170.727 166.238 161.14C165.835 150.443 164.926 139.242 166.238 128.545C166.642 125.114 168.862 122.389 172.495 122.288C187.935 122.188 203.374 120.27 218.915 120.472Z" fill="#2B2B29"/>
<path d="M122.238 171.938C127.788 166.085 136.568 174.965 131.018 180.717C123.954 188.185 117.192 195.047 106.395 194.845C96.2025 194.542 85.1021 192.423 77.6345 184.855C64.6167 171.534 65.1213 145.095 77.7354 131.572C85.203 123.499 97.5144 121.582 108.11 122.793C119.816 124.004 126.476 131.27 130.311 142.067C133.137 150.14 133.238 159.122 123.045 160.232C109.22 161.645 94.5879 161.039 80.561 160.938C80.9646 166.69 82.7811 172.24 86.5149 176.075C91.0559 180.818 99.9363 182.836 106.395 182.332C113.358 181.827 117.697 176.781 122.238 171.938ZM84.4966 143.379C83.5884 144.994 82.7811 146.709 82.1756 148.526C89.0377 148.526 95.7989 148.728 102.661 148.324C106.597 148.122 110.532 147.819 114.468 147.819C115.881 147.819 117.293 147.819 118.706 147.819C117.798 145.095 116.385 141.563 116.183 141.26C113.055 135.912 109.725 135.104 103.872 135.003C95.8998 134.802 88.7349 136.214 84.4966 143.379Z" fill="#2B2B29"/>
<path d="M51.5501 129.251C62.4488 134.903 67.2926 146.407 65.8798 158.314C64.1643 171.635 57.7058 182.836 45.899 189.396C36.5141 194.643 20.0653 196.359 10.0749 192.221C2.80912 189.194 6.03834 177.185 13.405 180.213C14.7169 180.717 16.1297 181.121 17.7443 181.424C17.7443 167.397 17.8452 153.37 17.7443 139.343C15.9278 139.545 14.1114 139.746 12.4968 139.847C4.52465 140.453 4.52465 127.94 12.4968 127.334C25.4137 126.426 39.4406 122.894 51.5501 129.251ZM53.5684 156.599C54.6784 140.554 42.7707 137.93 30.2575 138.334C30.2575 152.663 30.2575 167.094 30.2575 181.424C32.9821 181.02 35.6059 180.414 37.5232 179.607C46.9081 175.671 52.862 166.69 53.5684 156.599Z" fill="#2B2B29"/>
<path d="M340.7 89.4585H340.599C344.434 82.3946 355.131 88.7521 351.397 95.7151C347.462 102.981 338.682 106.109 329.701 106.816C329.701 107.017 329.701 107.32 329.6 107.623C333.939 108.228 337.976 110.146 339.288 114.788C340.801 119.934 338.581 125.585 334.141 128.411C324.252 134.869 305.381 128.714 308.206 114.788C309.417 109.036 318.197 111.357 317.289 117.008C317.289 117.008 317.289 117.008 317.289 117.109C317.289 117.21 317.289 117.21 317.289 117.311C317.289 117.21 317.289 117.21 317.289 117.109C317.389 117.411 317.591 117.916 317.591 118.017C317.995 118.925 318.399 119.732 319.307 120.439C321.527 122.053 326.371 122.255 328.793 120.742C330.306 119.732 330.407 118.421 330.407 117.613C330.306 116.907 330.508 117.311 329.398 117.008C327.783 116.604 326.068 116.604 324.352 116.604C320.921 116.705 319.408 113.577 320.013 110.852C320.013 110.852 320.013 110.751 320.013 110.65C320.114 109.338 320.215 108.027 320.316 106.715C317.692 106.412 315.169 106.008 313.05 105.504C296.5 101.164 291.354 85.3211 292.161 69.7805C293.877 38.4974 331.114 30.4244 351.902 50.0015C357.755 55.5517 348.874 64.3312 343.021 58.781C331.719 48.1851 310.023 48.286 305.381 65.5421C302.555 75.9362 304.473 90.2658 316.279 93.4951C322.031 95.0088 337.067 96.1188 340.7 89.4585ZM317.389 117.109C317.49 117.311 317.591 115.898 317.389 117.109V117.109Z" fill="#2B2B29"/>
<path d="M275.368 43.644C275.368 35.6718 287.78 35.6718 287.78 43.644C287.78 56.5608 287.377 69.2759 286.67 82.0918C286.166 89.6603 286.973 98.4398 282.129 104.595C278.9 108.531 273.047 105.806 271.735 101.871C268.506 92.5868 260.332 83.6055 254.883 75.5325C251.552 70.6887 248.525 66.0467 245.296 61.6065C245.296 74.4224 246.002 87.4402 246.002 100.256C246.002 108.329 233.59 108.228 233.59 100.256C233.59 82.0918 232.177 63.7257 233.186 45.5613C233.489 40.112 239.746 37.3873 243.782 41.1211C252.864 49.396 258.717 59.1846 265.579 69.2759C268.304 73.2115 271.432 77.3489 274.359 81.4864C274.46 78.6608 274.662 75.7343 274.762 72.9088C275.267 63.2211 275.368 53.4325 275.368 43.644Z" fill="#2B2B29"/>
<path d="M226.978 96.5225C228.088 104.394 216.079 107.724 214.969 99.8526C214.767 98.4398 214.565 96.9261 214.364 95.5134C208.914 100.963 201.447 104.999 195.19 106.715C180.053 110.953 167.338 102.577 165.522 86.7339C164.008 72.9088 168.751 52.4235 182.879 46.0659C191.053 42.3322 203.162 43.2404 212.043 47.9833C212.043 45.8641 211.942 43.7449 211.841 41.6258C211.437 33.6536 223.95 33.6536 224.253 41.6258C225.06 59.7901 224.354 78.56 226.978 96.5225ZM209.763 81.0522C212.564 75.111 213.473 68.8354 210.933 63.1203C206.795 55.8545 191.456 54.4417 185.502 59.2856C179.246 64.3312 177.127 76.3399 177.833 83.8074C178.842 95.8161 188.328 97.2289 197.612 92.486C201.749 90.3668 207.547 84.6366 209.763 81.0522Z" fill="#2B2B29"/>
<path d="M416.669 96.5225C417.779 104.394 405.771 107.724 404.661 99.8526C404.459 98.4398 404.257 96.9261 404.055 95.5134C398.606 100.963 391.138 104.999 384.882 106.715C369.745 110.953 357.03 102.577 355.213 86.7339C353.7 72.9088 358.442 52.4235 372.57 46.0659C380.744 42.3322 392.854 43.2404 401.734 47.9833C401.734 45.8641 401.633 43.7449 401.532 41.6258C401.129 33.6536 413.642 33.6536 413.945 41.6258C414.752 59.7901 414.046 78.56 416.669 96.5225ZM399.455 81.0522C402.255 75.111 403.164 68.8354 400.624 63.1203C396.487 55.8545 381.148 54.4417 375.194 59.2856C368.937 64.3312 366.818 76.3399 367.525 83.8074C368.534 95.8161 378.02 97.2289 387.304 92.486C391.441 90.3668 397.238 84.6366 399.455 81.0522Z" fill="#2B2B29"/>
<path d="M141.64 47.2769C133.567 47.2769 133.567 34.8646 141.64 34.8646C149.612 34.8646 149.612 47.2769 141.64 47.2769ZM161.823 93.596C169.795 93.596 169.795 106.008 161.823 106.008C148.603 106.008 135.384 106.513 122.164 106.412C114.192 106.311 114.192 93.8987 122.164 93.8987C127.21 93.9996 132.154 93.8987 137.2 93.8987C137.2 89.5595 137.099 85.3211 136.796 81.0828C136.494 76.0371 136.998 70.5878 136.494 65.4412C133.264 65.0376 128.824 65.6431 126.1 65.6431C118.127 65.6431 118.127 53.2307 126.1 53.2307C135.081 53.2307 147.594 51.4143 148.704 63.0193C149.713 73.1106 149.713 83.4038 149.713 93.6969C153.75 93.596 157.786 93.596 161.823 93.596Z" fill="#2B2B29"/>
<path d="M114.17 96.3206C118.207 103.284 107.409 109.54 103.373 102.577C99.4369 95.816 94.7949 89.2567 89.2447 83.7065C89.1438 83.6056 89.0429 83.5046 89.0429 83.4037C85.5109 83.9083 81.8781 83.8074 78.3461 83.3028C78.2452 88.7521 78.2452 94.3023 78.2452 99.8526C78.2452 107.825 65.8329 107.825 65.8329 99.8526C65.8329 80.2754 66.5393 60.6983 66.5393 41.1211C66.5393 39.2038 67.2457 37.791 68.2548 36.7819C69.2639 35.3691 70.8785 34.4609 73.0986 34.4609C80.8689 34.6627 91.263 34.0572 98.1251 38.3965C104.987 42.6348 106.703 52.0198 106.198 59.3864C105.895 65.643 105.088 73.1106 100.85 77.8535C105.895 83.5046 110.336 89.8622 114.17 96.3206ZM89.9511 70.3859C93.6849 68.3677 93.8867 61.4047 93.8867 57.4691C93.8867 51.0106 91.9694 48.3869 85.7128 47.6805C83.4927 47.3778 81.1717 47.2768 78.8507 47.1759C78.8507 55.0472 78.7498 62.9184 78.5479 70.7896C82.1808 71.496 86.9237 71.8996 89.9511 70.3859Z" fill="#2B2B29"/>
<path d="M48.878 88.8531C52.6118 81.7891 63.4095 88.0457 59.5748 95.1097C53.0154 107.219 32.631 107.724 21.2278 104.797C4.67804 100.559 -0.468529 84.6147 0.338776 69.175C2.0543 37.791 39.2912 29.8189 60.0793 49.396C65.9323 54.8453 57.0519 63.6248 51.199 58.1755C39.8967 47.4787 18.2004 47.6805 13.5584 64.9366C10.7328 75.2298 12.6502 89.5594 24.457 92.7887C30.2091 94.4033 45.2451 95.5133 48.878 88.8531Z" fill="#2B2B29"/>
</svg>
